<svg fill="none" height="464" viewBox="0 0 382 464" width="382" xmlns="http://www.w3.org/2000/svg"><path clip-rule="evenodd" d="m143.387 5.08085c29.979 11.14695 41.519 68.14195 92.28 77.05995 35.129 6.172 55.73-34.604 98.72-16.06 45.156 19.479 48 162.5402 46.66 197.0402-4.65 120.45-78.7 200.8-190.66 200.8s-196.48002-90.54-189.590016-204.3c2.210996-36.502 32.556016-101.118 50.340016-147.16 15.797-40.8982 25.752-132.1052 92.25-107.38015zm46.96 160.18015h.03c68.892 0 125.58 56.689 125.58 125.58s-56.688 125.58-125.58 125.58c-68.891 0-125.58-56.689-125.58-125.58.033-68.867 56.683-125.53 125.55-125.58z" fill="#000" fill-rule="evenodd"/></svg>