<svg preserveAspectRatio="none" overflow="visible" style="display: block;" width="16.4646" height="16.4646" viewBox="0 0 16.4646 16.4646" fill="none" xmlns="http://www.w3.org/2000/svg">
<g id="Icons">
<path id="Vector" d="M6.17422 6.86024C7.68974 6.86024 8.91832 5.63167 8.91832 4.11615C8.91832 2.60062 7.68974 1.37205 6.17422 1.37205C4.6587 1.37205 3.43012 2.60062 3.43012 4.11615C3.43012 5.63167 4.6587 6.86024 6.17422 6.86024Z" stroke="#262F37" stroke-width="0.823229"/>
<path id="Vector_2" d="M10.2904 6.17422C11.427 6.17422 12.3484 5.25279 12.3484 4.11615C12.3484 2.97951 11.427 2.05807 10.2904 2.05807" stroke="#262F37" stroke-width="0.823229" stroke-linecap="round"/>
<path id="Vector_3" d="M6.17422 14.4065C8.82639 14.4065 10.9764 13.1779 10.9764 11.6624C10.9764 10.1469 8.82639 8.91831 6.17422 8.91831C3.52206 8.91831 1.37205 10.1469 1.37205 11.6624C1.37205 13.1779 3.52206 14.4065 6.17422 14.4065Z" stroke="#262F37" stroke-width="0.823229"/>
<path id="Vector_4" d="M12.3484 9.60434C13.5519 9.86826 14.4065 10.5366 14.4065 11.3194C14.4065 12.0255 13.7111 12.6386 12.6915 12.9456" stroke="#262F37" stroke-width="0.823229" stroke-linecap="round"/>
</g>
</svg>
