<svg width="222" height="170" viewBox="0 0 222 170" fill="none" xmlns="http://www.w3.org/2000/svg">
<g clip-path="url(#clip0_591_3071)">
<path d="M37.257 169.956C37.257 169.956 34.0587 162.422 43.6534 156.772L37.257 169.956Z" fill="#F0F0F0"/>
<path d="M33.3235 169.819C33.3235 169.819 32.3479 164.449 24.7966 164.495L33.3235 169.819Z" fill="#F0F0F0"/>
<path d="M144.345 169.956C144.345 169.956 141.146 162.422 150.741 156.772L144.345 169.956Z" fill="#F0F0F0"/>
<path d="M140.411 169.819C140.411 169.819 139.436 164.449 131.884 164.495L140.411 169.819Z" fill="#F0F0F0"/>
<path d="M141.71 121.175C157.064 121.175 169.511 109.263 169.511 94.5697C169.511 79.876 157.064 67.9644 141.71 67.9644C126.356 67.9644 113.909 79.876 113.909 94.5697C113.909 109.263 126.356 121.175 141.71 121.175Z" fill="#F0F0F0"/>
<path d="M141.786 94.5693H141.863L143.238 170H140.335L141.786 94.5693Z" fill="#F0F0F0"/>
<path d="M201.398 134.388C212.597 134.388 221.675 125.7 221.675 114.983C221.675 104.266 212.597 95.5781 201.398 95.5781C190.199 95.5781 181.121 104.266 181.121 114.983C181.121 125.7 190.199 134.388 201.398 134.388Z" fill="#F0F0F0"/>
<path d="M201.454 114.983H201.51L202.512 170H200.395L201.454 114.983Z" fill="#F0F0F0"/>
<path d="M89.1129 115.18C89.5013 115.138 89.8753 115.014 90.2083 114.818C90.5414 114.622 90.8255 114.359 91.0407 114.046C91.2559 113.734 91.3969 113.38 91.4538 113.01C91.5106 112.64 91.482 112.262 91.3699 111.904L99.0779 106.583L94.461 104.905L87.8492 110.215C87.2325 110.435 86.7215 110.864 86.4132 111.421C86.105 111.977 86.0207 112.623 86.1765 113.235C86.3322 113.847 86.7172 114.383 87.2584 114.741C87.7996 115.1 88.4595 115.256 89.1129 115.18Z" fill="#FFB6B6"/>
<path d="M83.4621 167.369L81.0146 167.368L79.8502 158.334H83.4626L83.4621 167.369Z" fill="#FFB6B6"/>
<path d="M84.0863 169.639L76.1945 169.639V169.544C76.1945 168.764 76.5182 168.016 77.0942 167.465C77.6703 166.914 78.4515 166.604 79.2662 166.604L84.0864 166.604L84.0863 169.639Z" fill="#2F2E41"/>
<path d="M64.7674 167.369L62.3199 167.368L61.1558 158.334H64.7679L64.7674 167.369Z" fill="#FFB6B6"/>
<path d="M65.3917 169.639L57.4999 169.639V169.544C57.4999 168.764 57.8236 168.016 58.3996 167.465C58.9757 166.914 59.7569 166.604 60.5716 166.604L65.3918 166.604L65.3917 169.639Z" fill="#2F2E41"/>
<path d="M66.6579 117.13L61.4711 144.276L59.6569 165.837L65.5469 165.56L68.8997 144.622L77.2335 126.391L79.7138 165.51L85.1359 165.527L88.0534 116.044L66.6579 117.13Z" fill="#2F2E41"/>
<path d="M88.7173 86.0598L81.4471 83.2915L73.1068 84.2047L66.0363 87.9453C66.0363 87.9453 68.1991 113.904 65.0641 119.993C65.0641 119.993 67.576 123.322 77.8109 122.51C77.8109 122.51 87.7806 121.304 88.0277 118.175C88.2748 115.046 88.327 109.358 88.327 109.358L91.7876 97.9455L88.7173 86.0598Z" fill="#987AA5"/>
<path d="M68.8782 88.445L66.0363 87.9453C66.0363 87.9453 63.0124 89.2142 63.0435 92.9952C63.0745 96.7762 57.7013 109.452 64.1298 109.984C70.5582 110.515 68.8782 100.995 68.8782 100.995V88.445Z" fill="#987AA5"/>
<path d="M86.4114 87.6703L88.7172 86.0596C88.7172 86.0596 92.2377 86.8207 93.5399 89.5328C93.5399 89.5328 107.977 99.553 104.006 103.353C100.035 107.153 91.9403 111.831 91.9403 111.831L88.9432 108.583L96.3789 102.137L90.2789 96.8185L86.4114 87.6703Z" fill="#987AA5"/>
<path d="M82.7247 76.0943C82.7236 77.6086 82.0944 79.0605 80.9751 80.1309C79.8559 81.2013 78.3383 81.8026 76.756 81.8026C75.1737 81.8026 73.6561 81.2013 72.5369 80.1309C71.4177 79.0605 70.7884 77.6086 70.7874 76.0943V75.875C70.8485 74.381 71.5194 72.9695 72.6559 71.9436C73.7924 70.9177 75.304 70.3591 76.866 70.3878C78.4281 70.4165 79.9161 71.0302 81.0106 72.0971C82.1051 73.164 82.7189 74.5991 82.7201 76.0943H82.7247Z" fill="#FFB6B6"/>
<path d="M77.6633 75.1736C78.0451 75.1137 78.459 75.0567 78.8011 75.2247C79.5449 75.5887 79.3738 76.6206 79.7801 77.3017C79.9404 77.5721 80.2001 77.7928 80.307 78.0851C80.4139 78.3774 80.3482 78.7428 80.5162 79.0249C80.7591 79.4327 81.4173 79.4927 81.8496 79.25C82.2584 78.979 82.5546 78.5791 82.6865 78.1202C82.8301 77.7314 82.9507 77.3017 83.2974 77.0474C83.4234 76.9787 83.5365 76.8903 83.6319 76.7858C83.7035 76.6473 83.7312 76.4918 83.7113 76.3385C83.7113 75.3504 83.551 74.5846 83.7846 73.6272C84.1588 72.0837 84.5009 71.3208 83.3158 70.1763C82.709 69.5977 81.9282 69.2153 81.0829 69.083C80.3192 68.9632 79.1951 69.9834 78.4223 69.96C76.4567 69.8855 74.798 68.1432 72.9241 68.706C72.1047 68.9523 71.3943 69.4526 70.905 70.1281C69.9886 71.4202 70.0711 71.9201 70.2039 73.4621C70.202 73.5791 70.2377 73.6939 70.3063 73.7909C70.375 73.8698 70.4865 73.9122 70.5537 73.9926C70.626 74.0988 70.6533 74.2274 70.6301 74.3522C70.6096 74.6034 70.5483 74.8499 70.4483 75.083C70.4231 75.122 70.4075 75.1659 70.4028 75.2115C70.398 75.2571 70.4042 75.3031 70.4208 75.3461C70.4584 75.3949 70.5123 75.43 70.5736 75.4455C71.3372 75.7086 72.1619 75.2014 72.979 75.2145C73.7961 75.2277 74.572 75.751 75.4151 75.637C76.1589 75.5273 76.9134 75.292 77.6633 75.1736Z" fill="#2F2E41"/>
<path d="M77.6237 106.928C77.5728 106.947 77.5199 106.96 77.4659 106.967L70.8382 107.853C70.6779 107.875 70.5145 107.844 70.3749 107.765C70.2354 107.686 70.128 107.565 70.0704 107.42L64.3656 93.2135C64.3286 93.1215 64.3128 93.023 64.3193 92.9246C64.3257 92.8263 64.3542 92.7304 64.4029 92.6436C64.4515 92.5568 64.5192 92.481 64.6012 92.4214C64.6832 92.3618 64.7777 92.3199 64.8782 92.2985L71.1109 90.9674C71.159 90.9571 71.2055 90.9408 71.2492 90.919L77.3113 87.8858C77.3582 87.8623 77.4076 87.8439 77.4587 87.8309L84.1301 86.1289C84.301 86.085 84.4828 86.1032 84.6404 86.1802C84.798 86.2571 84.9202 86.3872 84.9833 86.5453L89.9576 98.9322C90.0013 99.0401 90.0156 99.1569 89.9991 99.2716C89.9827 99.3862 89.936 99.495 89.8635 99.5876L88.1432 101.798C88.0623 101.902 87.9522 101.982 87.8256 102.029L84.066 103.412C84.0391 103.421 84.0129 103.433 83.9879 103.447L77.7231 106.883C77.6912 106.901 77.658 106.916 77.6237 106.928Z" fill="white"/>
<path d="M80.7073 88.0226L79.8601 88.2388L77.615 88.8118L77.611 88.8127L74.5374 90.3507L73.3967 90.9216L73.3962 90.9218L71.683 91.7789L71.636 91.789L69.8564 92.1689L68.9963 92.3529L65.4882 93.102L70.9954 106.816L74.6105 106.333L75.4969 106.215L77.3862 105.962L77.4081 105.959L83.479 102.63L87.1727 101.271L88.8591 99.1039L84.0651 87.166L80.7073 88.0226Z" fill="#E4E4E4"/>
<path d="M84.8549 89.1332L66.5916 95.8501L66.9043 96.6289L85.1677 89.912L84.8549 89.1332Z" fill="white"/>
<path d="M85.8975 91.7289L67.6342 98.4458L67.9469 99.2246L86.2103 92.5077L85.8975 91.7289Z" fill="white"/>
<path d="M88.0034 96.973L69.74 103.69L70.0528 104.469L88.3161 97.7519L88.0034 96.973Z" fill="white"/>
<path d="M80.7072 88.0229L86.1749 101.638L85.3611 101.938L79.86 88.2392L80.7072 88.0229Z" fill="white"/>
<path d="M74.5374 90.3511L73.4147 93.3408L73.0254 94.3777L72.1173 96.7974L71.9227 97.3146L71.7278 97.8344L71.4715 98.5168L69.631 103.419L69.1525 102.227L70.6532 98.2297L70.9928 97.3247L71.0424 97.1927L71.4439 96.1225L71.9505 94.7732L72.34 93.7359L73.3961 90.9223L73.3966 90.922L74.5374 90.3511Z" fill="white"/>
<path d="M69.8564 92.1689L75.4967 106.215L74.6104 106.334L68.9962 92.353L69.8564 92.1689Z" fill="white"/>
<path d="M68.6491 105.619C70.0831 105.619 71.2455 104.506 71.2455 103.134C71.2455 101.762 70.0831 100.649 68.6491 100.649C67.2152 100.649 66.0527 101.762 66.0527 103.134C66.0527 104.506 67.2152 105.619 68.6491 105.619Z" fill="#FFB6B6"/>
<path d="M175.861 88.3104C201.343 88.3104 222 68.5415 222 44.1552C222 19.769 201.343 0 175.861 0C150.379 0 129.721 19.769 129.721 44.1552C129.721 68.5415 150.379 88.3104 175.861 88.3104Z" fill="#E4E4E4"/>
<path opacity="0.1" d="M209.928 14.6631C214.232 24.2974 214.816 35.0824 211.576 45.0908C208.335 55.0992 201.482 63.6788 192.24 69.2965C182.998 74.9142 171.97 77.204 161.126 75.7566C150.282 74.3093 140.33 69.2191 133.047 61.3957C135.676 67.2818 139.611 72.5507 144.579 76.837C149.547 81.1234 155.429 84.3249 161.818 86.2196C168.208 88.1143 174.951 88.6571 181.581 87.8102C188.211 86.9632 194.57 84.7469 200.216 81.3148C205.863 77.8827 210.662 73.3168 214.281 67.9335C217.901 62.5502 220.254 56.4782 221.178 50.1382C222.101 43.7982 221.574 37.3418 219.631 31.2162C217.689 25.0907 214.378 19.4425 209.928 14.6631Z" fill="black"/>
<path d="M175.734 44.1553H175.607L173.325 169.343H178.142L175.734 44.1553Z" fill="#E4E4E4"/>
<path d="M209.41 169.876H0.250791C0.184277 169.876 0.120487 169.851 0.0734547 169.806C0.0264223 169.761 0 169.7 0 169.636C0 169.573 0.0264223 169.512 0.0734547 169.467C0.120487 169.422 0.184277 169.396 0.250791 169.396H209.41C209.477 169.396 209.54 169.422 209.587 169.467C209.634 169.512 209.661 169.573 209.661 169.636C209.661 169.7 209.634 169.761 209.587 169.806C209.54 169.851 209.477 169.876 209.41 169.876Z" fill="#CACACA"/>
</g>
<defs>
<clipPath id="clip0_591_3071">
<rect width="222" height="170" fill="white"/>
</clipPath>
</defs>
</svg>
