<svg width="2136" height="479" viewBox="0 0 2136 479" fill="none" xmlns="http://www.w3.org/2000/svg">
<path fill-rule="evenodd" clip-rule="evenodd" d="M462.387 19.0813C492.366 30.2283 503.906 87.2233 554.667 96.1413C589.796 102.313 610.397 61.5373 653.387 80.0813C698.543 99.5603 701.387 242.621 700.047 277.121C695.397 397.572 621.347 477.922 509.387 477.922C397.427 477.922 312.907 387.382 319.797 273.621C322.008 237.119 352.353 172.503 370.137 126.461C385.934 85.5633 395.889 -5.64366 462.387 19.0813ZM509.347 179.261C509.357 179.261 509.367 179.261 509.377 179.261C578.269 179.261 634.957 235.95 634.957 304.841C634.957 373.732 578.269 430.422 509.377 430.422C440.486 430.422 383.797 373.732 383.797 304.841C383.83 235.974 440.48 179.311 509.347 179.261Z" fill="black"/>
<path fill-rule="evenodd" clip-rule="evenodd" d="M173.483 478.14C253.062 478.14 296.034 420.42 296.034 364.26C296.034 349.44 276.935 346.32 267.386 359.58C261.02 377.52 245.104 394.68 213.272 394.68C190.194 394.68 172.687 375.96 172.687 344.76V141.18H264.203C272.956 141.18 280.119 134.94 280.119 125.58V112.32C280.119 102.96 272.956 95.94 264.203 95.94H172.687L171.891 18.72C171.891 7.02 165.525 0 154.384 0H138.468C129.714 0 122.552 7.02 120.165 18.72C111.411 64.74 80.3749 95.94 35.8106 95.94H15.9158C5.5705 95.94 0 102.18 0 112.32V125.58C0 134.94 6.3663 141.18 15.9158 141.18H53.318V343.2C53.318 432.12 101.066 478.14 173.483 478.14Z" fill="black"/>
<path fill-rule="evenodd" clip-rule="evenodd" d="M900.682 478.14C980.262 478.14 1023.23 420.42 1023.23 364.26C1023.23 349.44 1004.14 346.32 994.586 359.58C988.219 377.52 972.304 394.68 940.472 394.68C917.394 394.68 899.887 375.96 899.887 344.76V141.18H991.403C1000.16 141.18 1007.32 134.94 1007.32 125.58V112.32C1007.32 102.96 1000.16 95.94 991.403 95.94H899.887L899.091 18.72C899.091 7.02 892.725 0 881.583 0H865.668C856.914 0 849.752 7.02 847.364 18.72C838.611 64.74 807.575 95.94 763.011 95.94H743.116C732.77 95.94 727.2 102.18 727.2 112.32V125.58C727.2 134.94 733.566 141.18 743.116 141.18H780.518V343.2C780.518 432.12 828.265 478.14 900.682 478.14Z" fill="black"/>
<path fill-rule="evenodd" clip-rule="evenodd" d="M1373.36 351.78C1358.24 375.96 1324.82 397.02 1278.66 397.02C1225.34 397.02 1184.76 365.04 1164.07 315.12C1192.72 317.46 1226.94 317.46 1261.95 310.44C1336.76 297.18 1389.28 253.5 1389.28 197.34C1389.28 128.7 1326.41 87.3598 1237.28 88.1398C1129.85 88.9198 1042.31 165.36 1042.31 280.02C1042.31 398.58 1125.07 478.14 1242.06 478.14C1348.69 478.14 1396.44 405.6 1400.42 360.36C1402.01 343.98 1382.91 340.08 1373.36 351.78ZM1222.16 124.02C1256.38 124.02 1280.25 155.22 1281.05 192.66C1281.05 246.48 1259.56 267.54 1226.14 273.78C1205.45 278.46 1177.6 279.24 1152.93 277.68C1149.74 262.08 1148.15 245.7 1148.15 228.54C1148.15 168.48 1177.6 124.02 1222.16 124.02Z" fill="black"/>
<path fill-rule="evenodd" clip-rule="evenodd" d="M2106.9 394.68L2097.35 255.84C2087.8 128.7 2021.75 88.1404 1949.33 88.1404C1896.01 88.1404 1849.86 113.88 1828.37 158.34C1801.31 112.32 1752.77 88.1404 1696.27 88.1404C1649.32 88.1404 1609.53 109.98 1586.45 144.3V107.64C1586.45 92.8204 1576.9 81.9004 1558.6 91.2604L1458.33 136.5C1448.78 141.18 1441.62 145.08 1441.62 152.88V156C1441.62 175.5 1480.61 179.4 1480.61 213.72V395.46C1480.61 429 1446.39 435.24 1446.39 454.74V457.86C1446.39 466.44 1454.35 471.12 1464.69 471.12H1612.71C1623.85 471.12 1631.01 466.44 1631.01 457.86V454.74C1631.01 435.24 1596.8 429 1596.8 395.46V219.18C1596.8 170.04 1621.47 132.6 1665.23 132.6C1705.82 132.6 1734.47 170.82 1734.47 243.36V395.46C1734.47 429 1705.82 435.24 1705.82 454.74V457.86C1705.82 466.44 1713.78 471.12 1724.12 471.12H1861.79C1872.14 471.12 1879.3 466.44 1879.3 457.86V454.74C1879.3 435.24 1851.45 429 1851.45 395.46V251.16C1851.45 237.9 1850.65 225.42 1848.27 213.72C1849.86 166.92 1875.32 132.6 1912.72 132.6C1954.9 132.6 1977.98 164.58 1981.96 252.72L1989.92 395.46C1992.3 429 1962.06 435.24 1962.06 454.74V457.86C1962.06 466.44 1969.23 471.12 1980.37 471.12H2118.04C2128.38 471.12 2135.55 466.44 2135.55 457.86V454.74C2135.55 435.24 2109.29 429 2106.9 394.68Z" fill="black"/>
</svg>
